<svg xmlns="http://www.w3.org/2000/svg" viewBox="0 0 305.796 71.97">
  <g transform="translate(-14.551 -15.483)">
    <path d="M104.763,65.417h.534a41.951,41.951,0,0,0,8.665,1.133c4.134,0,7.133-1,7.133-4.533,0-6.533-16.2-3.933-16.2-14.731,0-5.867,5.466-9,12.33-9a26.681,26.681,0,0,1,8,1.2v4.932h-.533a24.324,24.324,0,0,0-7.532-1.332c-3.266,0-6.666.733-6.666,4.2,0,6.2,16.2,3.732,16.2,14.2,0,7.6-6.133,9.867-12.931,9.867a42.491,42.491,0,0,1-9-1Z" fill="#f94c43"/>
    <path d="M181.217,70.149a19.206,19.206,0,0,1-6.666,1.2c-3.267,0-8.4-.733-8.4-8.265v-19.2h-4.134V39.219h4.134V31.753l4.733-1h.533v8.466h10.267v4.666H171.418V62.95c0,3.4,2.866,3.666,4.2,3.666a19.816,19.816,0,0,0,5.134-1Z" fill="#f94c43"/>
    <path d="M200.743,65.417h.534a41.951,41.951,0,0,0,8.665,1.133c4.134,0,7.133-1,7.133-4.533,0-6.533-16.2-3.933-16.2-14.731,0-5.867,5.466-9,12.331-9a26.691,26.691,0,0,1,8,1.2v4.932h-.534a24.323,24.323,0,0,0-7.531-1.332c-3.267,0-6.668.733-6.668,4.2,0,6.2,16.2,3.732,16.2,14.2,0,7.6-6.132,9.867-12.931,9.867a42.491,42.491,0,0,1-9-1Z" fill="#f94c43"/>
    <path d="M229.736,39.286l4.666-1h.667v4.068A17.855,17.855,0,0,1,246.2,38.285c6.867,0,12.2,4.867,12.2,15.266,0,10.2-5.331,17.8-16.464,17.8a31.341,31.341,0,0,1-6.866-.8V86.08l-4.666,1h-.667Zm5.333,26.6a41.805,41.805,0,0,0,7.067.667c6.532,0,10.666-4.134,10.666-12.2,0-7.466-2.468-11.264-7.8-11.264-3.134,0-6.6,1.332-9.933,4.266Z" fill="#f94c43"/>
    <path d="M302.59,70.081,291.841,39.219h6.132l7.549,24.264h.467l8.291-24.264h6.067l-11.757,32.4c-2.8,8-6.268,11.866-12,15.464l-3-3.866c5.8-4.132,7.265-6.466,9.465-11.865" fill="#f94c43"/>
    <path d="M287.193,70.349l-4.333.867h-.733v-4.4h-.134c-2.8,2.133-6.2,4.333-10.8,4.333a8.24,8.24,0,0,1-8.332-8.667c0-7.73,6.932-8.8,10.665-9.332l8.332-1.132V49.885c0-5.333-2.533-6.8-7.132-6.8a27.037,27.037,0,0,0-9.6,2.134l-.6-4.933a34.853,34.853,0,0,1,11.2-2c6.6,0,11.465,2.733,11.465,11.6Zm-5.333-14.4-8.6,1.267c-2.267.333-4.8,1.266-4.8,4.865a4.236,4.236,0,0,0,4.533,4.4c2.934,0,6.268-1.868,8.866-3.733Z" fill="#f94c43"/>
    <path d="M155.888,49.885c0-8.866-4.867-11.6-11.465-11.6a34.876,34.876,0,0,0-11.2,2l.6,4.933a27.015,27.015,0,0,1,9.6-2.134c4.6,0,7.132,1.467,7.132,6.8v2.133l-8.332,1.132c-3.733.535-10.665,1.6-10.665,9.332a8.24,8.24,0,0,0,8.332,8.667c4.6,0,8-2.2,10.8-4.333h.134v4.4h.733l4.333-.867ZM150.555,62.75c-2.6,1.865-5.933,3.733-8.866,3.733a4.235,4.235,0,0,1-4.533-4.4c0-3.6,2.534-4.533,4.8-4.866l8.6-1.267Z" fill="#f94c43"/>
    <path d="M187.747,71.216h.021l-.021-.023Z" fill="#f94c43"/>
    <path d="M192.413,38.285l-4.666,1V71.192l.021.022h.667l4.646-.994V38.285Z" fill="#f94c43"/>
    <path d="M192.413,27.472l-4.666,1v5.647l.021.022h.667l4.646-1V27.472Z" fill="#f94c43"/>
    <path d="M235.069,52.462A2.667,2.667,0,1,1,232.4,49.8a2.665,2.665,0,0,1,2.666,2.666" fill="#f94c43"/>
    <path d="M72.052,17.4a1.125,1.125,0,0,0-.8-1.921h-16.7l9.709,9.707Z" fill="#f94c43"/>
    <path d="M48.716,40.741,36.774,28.8,26.027,39.547,14.881,50.692a1.125,1.125,0,0,0,0,1.592L26.027,63.431,36.774,74.178,48.716,62.235l-9.952-9.951-.8-.8.8-.8Z" fill="#f94c43"/>
    <path d="M64.266,77.785,54.6,87.453H71.216a1.125,1.125,0,0,0,.8-1.921Z" fill="#f94c43"/>
    <path d="M86.159,50.692,75.013,39.546,62.461,27,51.279,15.813a1.121,1.121,0,0,0-.759-.323c-.013,0-.024-.007-.037-.007h-20.7a1.125,1.125,0,0,0-.8,1.921L38.578,27,50.52,38.937,62.275,50.692l.8.8-.8.8L50.52,64.04,38.578,75.981l-9.55,9.551a1.125,1.125,0,0,0,.8,1.921h20.7a1.125,1.125,0,0,0,.8-.329L62.461,75.981l12.552-12.55L86.159,52.284a1.125,1.125,0,0,0,0-1.592" fill="#f94c43"/>
  </g>
</svg>
